<svg width="90" height="90" viewBox="0 0 90 90" fill="none" xmlns="http://www.w3.org/2000/svg">
<rect width="90" height="90" rx="13" fill="url(#paint0_linear)"/>
<path d="M22.5 71.9999C26.6421 71.9999 30 68.6421 30 64.4999C30 60.3578 26.6421 56.9999 22.5 56.9999C18.3579 56.9999 15 60.3578 15 64.4999C15 68.6421 18.3579 71.9999 22.5 71.9999Z" fill="white"/>
<path d="M45.0001 52.5C49.1422 52.5 52.5001 49.1421 52.5001 45C52.5001 40.8579 49.1422 37.5 45.0001 37.5C40.858 37.5 37.5001 40.8579 37.5001 45C37.5001 49.1421 40.858 52.5 45.0001 52.5Z" fill="white"/>
<path d="M22.5 52.5C26.6421 52.5 30 49.1421 30 45C30 40.8579 26.6421 37.5 22.5 37.5C18.3579 37.5 15 40.8579 15 45C15 49.1421 18.3579 52.5 22.5 52.5Z" fill="white"/>
<path d="M67.5 33C71.6421 33 75 29.6421 75 25.5C75 21.3579 71.6421 18 67.5 18C63.3579 18 60 21.3579 60 25.5C60 29.6421 63.3579 33 67.5 33Z" fill="white"/>
<path d="M67.5 71.9999C71.6421 71.9999 75 68.6421 75 64.4999C75 60.3578 71.6421 56.9999 67.5 56.9999C63.3579 56.9999 60 60.3578 60 64.4999C60 68.6421 63.3579 71.9999 67.5 71.9999Z" fill="white"/>
<path d="M22.5 33C26.6421 33 30 29.6421 30 25.5C30 21.3579 26.6421 18 22.5 18C18.3579 18 15 21.3579 15 25.5C15 29.6421 18.3579 33 22.5 33Z" fill="white"/>
<path d="M45.0001 71.9999C49.1422 71.9999 52.5001 68.6421 52.5001 64.4999C52.5001 60.3578 49.1422 56.9999 45.0001 56.9999C40.858 56.9999 37.5001 60.3578 37.5001 64.4999C37.5001 68.6421 40.858 71.9999 45.0001 71.9999Z" fill="white"/>
<path d="M45 37.5H22.5V52.5H45V37.5Z" fill="white"/>
<path d="M67.4999 18H22.5V33H67.4999V18Z" fill="white"/>
<path d="M67.4998 56.9999H44.9999V71.9999H67.4998V56.9999Z" fill="white"/>
<defs>
<linearGradient id="paint0_linear" x1="45" y1="0" x2="45" y2="90" gradientUnits="userSpaceOnUse">
<stop stop-color="#095BFC"/>
<stop offset="1" stop-color="#095BFC"/>
</linearGradient>
</defs>
</svg>
