<svg width="966" height="212" fill="none" xmlns="http://www.w3.org/2000/svg"><path d="M321.159 76.727h-17.898V55.818h-16.988v20.91h-12.784v13.636h12.784v51.534c-.057 15.852 12.045 23.522 25.454 23.238 5.398-.056 9.034-1.079 11.023-1.818l-3.068-14.034c-1.137.227-3.239.739-5.966.739-5.511 0-10.455-1.818-10.455-11.648V90.364h17.898V76.727zm96.477 51.08c.057 14.829-10.966 21.875-20.512 21.875-10.511 0-17.784-7.614-17.784-19.489V76.727h-16.988v55.512c0 21.647 11.875 32.897 28.636 32.897 13.125 0 22.046-6.931 26.08-16.25h.909V164h16.704V76.727h-17.045v51.08zM479.908 164h16.989v-53.807c0-11.761 8.238-19.943 17.897-19.943 9.432 0 15.966 6.25 15.966 15.739V164h16.932v-55.625c0-10.511 6.421-18.125 17.5-18.125 8.977 0 16.364 5 16.364 16.818V164h16.988v-58.523c0-19.943-11.136-29.886-26.931-29.886-12.557 0-21.989 6.023-26.194 15.34h-.909c-3.807-9.545-11.818-15.34-23.466-15.34-11.534 0-20.113 5.739-23.75 15.34h-1.079V76.728h-16.307V164zm165.17 0h16.591v-13.58h1.42c3.068 5.569 9.318 15.285 25.227 15.285 21.137 0 36.478-16.932 36.478-45.171 0-28.295-15.568-44.943-36.648-44.943-16.193 0-22.045 9.886-25.057 15.284h-1.023V47.636h-16.988V164zm16.648-43.636c0-18.239 7.954-30.341 22.784-30.341 15.397 0 23.125 13.011 23.125 30.341 0 17.5-7.955 30.852-23.125 30.852-14.603 0-22.784-12.5-22.784-30.852zm121.533-72.728H766.27V164h16.989V47.636zm82.869 118.125c19.034 0 32.5-9.375 36.363-23.579l-16.079-2.898c-3.068 8.239-10.455 12.443-20.114 12.443-14.545 0-24.318-9.432-24.772-26.25h62.045v-6.022c0-31.534-18.864-43.864-38.636-43.864-24.319 0-40.341 18.523-40.341 45.341 0 27.102 15.795 44.829 41.534 44.829zm-24.546-53.011c.682-12.386 9.659-23.125 23.466-23.125 13.182 0 21.818 9.773 21.875 23.125h-45.341zM49.597 135.915a14.827 14.827 0 01-3.756-9.084V84.844a14.82 14.82 0 013.756-9.085l2.97-2.97a5.325 5.325 0 000-7.524l-31.504-31.52a5.33 5.33 0 00-7.523 0L1.548 45.742a5.344 5.344 0 000 7.523l22.485 22.493a14.783 14.783 0 013.76 9.085v41.987a14.76 14.76 0 01-3.76 9.078L1.548 158.41a5.346 5.346 0 000 7.523l11.992 11.996a5.33 5.33 0 007.523 0l31.504-31.522a5.327 5.327 0 000-7.522l-2.97-2.97zM136.176 162.383a14.835 14.835 0 01-9.079 3.762h-41.96a14.853 14.853 0 01-9.087-3.762l-2.963-2.979a5.353 5.353 0 00-7.53 0l-31.5 31.52a5.344 5.344 0 000 7.531l11.992 11.997a5.345 5.345 0 007.525 0l22.48-22.505a14.856 14.856 0 019.084-3.76h41.972a14.827 14.827 0 019.079 3.76l22.49 22.505a5.342 5.342 0 007.521 0l11.992-11.997a5.338 5.338 0 000-7.531l-31.523-31.522a5.337 5.337 0 00-7.519 0l-2.974 2.981zM163.39 76.083a14.836 14.836 0 013.766 9.097v41.972a14.825 14.825 0 01-3.766 9.09l-2.971 2.978a5.338 5.338 0 000 7.523l31.513 31.516a5.33 5.33 0 007.522 0l11.992-12.003a5.332 5.332 0 000-7.524l-22.48-22.494a14.821 14.821 0 01-3.768-9.09l.006-41.971a14.82 14.82 0 013.762-9.098l22.48-22.493a5.32 5.32 0 000-7.515l-11.992-12.004a5.32 5.32 0 00-5.796-1.153 5.314 5.314 0 00-1.726 1.153l-31.513 31.515a5.338 5.338 0 000 7.524l2.971 2.977zM76.81 49.616a14.797 14.797 0 019.08-3.762h41.964a14.836 14.836 0 019.08 3.762l2.977 2.977a5.307 5.307 0 005.792 1.153 5.322 5.322 0 001.725-1.153l31.508-31.522a5.343 5.343 0 000-7.53L166.944 1.557a5.321 5.321 0 00-7.524 0L136.935 24.05a14.836 14.836 0 01-9.08 3.762H85.891a14.798 14.798 0 01-9.081-3.762L54.324 1.558a5.346 5.346 0 00-7.523 0L34.808 13.554a5.342 5.342 0 000 7.53l31.5 31.508a5.321 5.321 0 007.525 0l2.976-2.976z" fill="#5086F1"/></svg>